<?xml version="1.0" standalone="no"?>
<!DOCTYPE svg PUBLIC "-//W3C//DTD SVG 20010904//EN"
 "http://www.w3.org/TR/2001/REC-SVG-20010904/DTD/svg10.dtd">
<svg version="1.0" xmlns="http://www.w3.org/2000/svg"
 width="800.000000pt" height="800.000000pt" viewBox="0 0 800.000000 800.000000"
 preserveAspectRatio="xMidYMid meet">
<metadata>
Created by potrace 1.14, written by Peter Selinger 2001-2017
</metadata>
<g transform="translate(0.000000,800.000000) scale(0.100000,-0.100000)"
fill="#000000" stroke="none">
<path d="M3380 6795 c0 -10 -8 -27 -17 -38 -17 -19 -17 -19 2 -14 11 3 102 11
202 18 100 7 180 15 178 19 -4 7 -79 14 -267 27 -90 5 -98 4 -98 -12z"/>
<path d="M4388 6796 c-104 -11 -155 -26 -87 -26 19 0 115 -7 214 -15 204 -17
251 -18 187 -3 -32 7 -45 16 -52 34 -9 23 -14 24 -82 22 -40 0 -121 -6 -180
-12z"/>
<path d="M3715 6634 c-145 -9 -427 -42 -540 -64 -245 -48 -273 -54 -520 -120
-84 -22 -198 -64 -212 -78 -49 -50 -160 -247 -304 -542 -55 -113 -105 -215
-111 -227 -13 -27 -1 -81 48 -207 36 -93 38 -119 14 -201 -9 -28 -23 -97 -49
-235 -11 -58 -29 -299 -32 -435 -2 -80 -2 -80 24 -83 15 -2 27 -8 27 -15 0
-24 18 11 40 78 78 239 276 499 510 671 252 186 616 340 970 409 356 70 464
76 680 34 30 -5 80 -15 110 -21 186 -35 526 -133 555 -159 5 -5 15 -9 23 -9
20 0 254 -118 337 -170 345 -216 582 -523 664 -860 9 -40 41 -205 41 -216 0
-3 -13 2 -30 11 -16 8 -33 15 -38 15 -5 0 -12 -152 -16 -345 l-8 -345 32 -51
c17 -29 29 -58 26 -68 -4 -9 6 -1 21 16 22 25 33 31 51 27 12 -4 29 -1 37 6 8
6 18 9 24 6 18 -11 -22 79 -62 139 -44 66 -50 104 -22 135 18 20 18 21 -3 27
-21 5 -22 9 -22 154 0 82 3 149 7 149 4 0 20 -12 36 -27 32 -30 29 -21 -15 44
-25 37 -27 46 -17 65 8 14 10 49 6 103 -5 73 -3 88 19 134 l24 53 0 406 c0
224 -5 461 -10 527 -12 146 -30 256 -42 249 -4 -3 -8 0 -8 5 0 14 -142 304
-221 451 -80 151 -155 273 -182 298 -30 28 -200 83 -417 136 -94 23 -139 32
-315 66 -108 21 -310 45 -505 60 -113 8 -501 11 -625 4z m505 -94 c149 -15
372 -62 454 -95 l29 -12 -78 -82 c-77 -80 -106 -101 -85 -60 24 44 1 59 -142
89 -249 54 -675 41 -882 -26 -48 -16 -48 -17 -42 -52 l5 -36 -79 79 c-44 44
-80 82 -80 86 0 12 210 70 330 90 163 27 406 35 570 19z m-856 -334 c188 -132
234 -158 230 -130 -1 5 -4 46 -8 91 l-6 82 37 6 c21 3 61 11 88 17 81 18 532
14 639 -6 49 -9 91 -16 93 -16 4 0 -4 -98 -13 -157 -3 -22 -1 -33 7 -33 13 0
128 77 318 213 119 85 126 89 148 75 69 -42 443 -422 443 -451 0 -5 -21 7 -47
26 -46 33 -344 240 -364 252 -5 4 -35 -9 -67 -28 -31 -19 -88 -52 -127 -72
-38 -21 -108 -58 -155 -83 -47 -25 -104 -56 -128 -69 l-43 -23 -399 0 c-369 0
-402 1 -432 18 -18 10 -91 49 -163 87 -71 37 -172 92 -224 122 l-93 55 -71
-49 c-40 -26 -76 -51 -82 -56 -69 -52 -261 -184 -264 -181 -8 7 113 144 226
255 183 179 217 209 233 206 8 -2 109 -70 224 -151z"/>
<path d="M3820 5404 c-325 -41 -555 -106 -790 -223 -367 -184 -630 -479 -746
-838 l-29 -88 3 -349 2 -349 31 -53 c41 -73 156 -192 222 -232 91 -55 188 -89
283 -101 89 -11 89 -11 125 17 93 70 493 385 559 440 34 29 66 52 70 52 5 0
23 -27 41 -60 34 -65 46 -73 54 -37 3 12 13 56 23 97 l18 75 324 0 324 0 18
-75 c10 -41 20 -85 23 -97 8 -35 18 -28 50 33 16 30 33 58 37 61 11 6 18 1
165 -118 148 -119 335 -268 431 -342 l74 -57 56 6 c218 22 398 128 518 305
l49 71 9 321 c10 340 7 374 -36 502 -117 346 -384 638 -748 818 -209 103 -376
156 -616 196 -274 44 -361 48 -544 25z m1055 -435 c111 -53 114 -56 105 -116
-5 -26 -16 -106 -25 -178 -9 -71 -20 -157 -25 -190 -5 -33 -16 -116 -25 -185
-9 -69 -23 -172 -31 -229 -17 -119 -18 -117 68 -172 31 -20 53 -28 59 -22 5 5
16 67 25 139 8 71 19 163 24 204 21 177 42 351 51 425 5 44 12 100 16 124 l8
43 55 -45 c31 -25 75 -69 98 -98 40 -49 42 -55 37 -98 -13 -100 -36 -269 -45
-331 -5 -36 -17 -123 -26 -195 -9 -71 -22 -168 -29 -215 -13 -89 -8 -112 24
-129 53 -29 198 167 266 359 15 43 15 34 12 -190 -3 -191 -7 -241 -20 -266
-38 -74 -202 -184 -273 -184 -35 0 -165 82 -280 175 -29 24 -75 56 -101 71
-62 36 -171 111 -203 140 -14 13 -81 61 -150 108 l-125 86 -357 0 -358 0 -57
-41 c-32 -22 -133 -93 -225 -157 -92 -64 -232 -162 -310 -217 -176 -124 -175
-124 -157 -98 13 19 311 330 576 603 67 69 131 137 143 153 l21 27 372 0 372
0 128 -85 c71 -47 132 -85 136 -85 7 0 23 98 36 220 3 30 10 84 15 120 5 36
16 128 25 205 16 141 32 273 41 333 3 17 9 32 15 32 5 0 48 -18 94 -41z"/>
<path d="M2070 4195 c-10 -12 -10 -15 4 -15 24 0 20 -40 -9 -82 -24 -35 -25
-44 -25 -182 0 -140 -1 -146 -22 -157 -18 -10 -19 -13 -8 -17 25 -8 50 -34 50
-52 0 -10 -24 -51 -54 -91 -29 -41 -56 -86 -60 -102 -5 -23 -3 -29 20 -37 22
-9 31 -7 49 10 26 24 33 25 55 5 15 -14 18 -12 34 17 16 30 16 62 9 372 -8
340 -12 369 -43 331z"/>
<path d="M1940 3884 c0 -8 5 -12 10 -9 6 3 10 10 10 16 0 5 -4 9 -10 9 -5 0
-10 -7 -10 -16z"/>
<path d="M6056 3834 c-6 -59 -3 -85 8 -73 7 7 12 139 5 139 -3 0 -9 -30 -13
-66z"/>
<path d="M3730 3513 c-8 -3 -44 -29 -80 -57 -36 -29 -119 -94 -185 -146 -66
-52 -173 -136 -238 -187 -64 -52 -158 -123 -208 -160 l-92 -65 -55 6 c-185 22
-432 127 -581 247 -33 27 -62 49 -65 49 -3 0 2 -12 10 -27 16 -32 19 -109 4
-118 -6 -4 -8 -10 -5 -15 8 -13 191 -122 260 -154 99 -47 264 -97 357 -108 99
-13 80 -20 218 87 340 265 584 447 588 437 2 -8 -91 -265 -124 -339 -8 -17
-14 -36 -14 -42 0 -6 -4 -19 -9 -29 -5 -9 -25 -57 -43 -107 l-34 -90 -224 -5
c-173 -4 -220 -8 -205 -16 11 -6 38 -14 60 -17 39 -6 129 -21 293 -51 46 -8
89 -13 96 -10 6 2 83 119 170 259 88 140 165 260 171 265 8 7 90 9 220 8 l208
-3 48 -75 c26 -41 101 -160 165 -263 65 -103 121 -190 125 -193 4 -2 45 3 91
11 46 8 110 20 143 25 143 23 213 38 226 46 9 6 -75 11 -211 14 l-225 5 -83
220 c-46 121 -90 236 -97 255 -7 19 -22 59 -33 88 -12 28 -18 52 -15 52 9 0
55 -35 392 -292 358 -274 326 -258 461 -234 154 28 331 100 499 205 112 70
104 66 93 45 -28 -52 -206 -201 -318 -265 -45 -25 -53 -34 -43 -45 6 -8 20
-14 30 -14 38 0 17 -20 -56 -54 -84 -39 -202 -113 -253 -158 l-34 -29 -47 49
c-36 38 -57 51 -88 57 -141 23 -290 -104 -408 -347 -15 -32 -29 -58 -32 -58
-4 0 2 38 23 147 8 40 14 79 14 87 0 8 -28 52 -62 98 -34 45 -126 173 -204
283 -79 110 -149 209 -157 220 -13 18 -28 20 -138 23 -68 2 -135 -1 -149 -6
-16 -6 -56 -54 -105 -123 -43 -63 -139 -197 -213 -299 l-135 -185 13 -75 c29
-168 23 -192 -20 -92 -55 127 -162 257 -247 300 -97 49 -166 41 -234 -29 l-47
-48 -49 37 c-68 54 -175 119 -248 152 -75 34 -85 46 -45 54 34 6 40 31 9 41
-26 8 -137 84 -208 142 -51 42 -79 51 -50 17 9 -11 12 -41 11 -97 -2 -67 -6
-85 -22 -98 -19 -16 -18 -18 23 -44 136 -90 261 -236 342 -400 30 -60 55 -118
57 -129 4 -22 -11 -30 -77 -45 -60 -13 -181 -41 -329 -76 -59 -14 -109 -25
-110 -23 -2 2 -13 30 -26 63 -62 160 -155 309 -256 410 -56 56 -70 65 -72 49
-6 -32 -43 -64 -74 -64 -28 0 -27 -1 24 -43 95 -77 177 -198 239 -352 32 -81
58 -197 75 -340 14 -116 15 -152 4 -251 -14 -129 -30 -160 -30 -57 0 139 -25
337 -61 478 -30 120 -115 304 -178 388 -44 58 -139 152 -189 187 -26 17 -31
25 -20 31 9 6 5 9 -13 9 -32 0 -51 -21 -83 -90 -59 -133 -57 -241 11 -480 51
-183 54 -196 44 -222 -14 -37 -52 -65 -111 -83 -239 -72 -341 -120 -388 -180
-41 -52 -24 -83 80 -148 29 -18 233 -88 308 -105 112 -27 137 -31 350 -67 277
-46 570 -78 980 -106 239 -17 2015 -24 2245 -10 763 49 1101 91 1502 187 149
35 310 104 366 157 25 24 29 32 24 64 -4 20 -16 46 -28 59 -28 29 -181 96
-284 124 -120 33 -147 48 -172 100 l-23 45 35 139 c57 222 69 307 55 385 -14
74 -61 179 -97 213 -22 20 -25 21 -56 6 -17 -8 -65 -46 -104 -83 -218 -201
-341 -543 -344 -950 0 -139 0 -140 -16 -95 -11 34 -15 90 -15 225 -1 190 14
291 62 436 67 201 195 380 310 435 22 10 40 22 40 25 0 4 -18 25 -40 47 l-40
40 -58 -42 c-123 -91 -246 -269 -317 -456 -15 -41 -29 -76 -30 -78 -3 -3 -176
36 -370 84 -55 13 -107 24 -115 24 -9 0 -21 5 -27 11 -20 20 44 165 131 294
48 72 182 207 251 253 51 34 55 35 143 16 32 -7 33 -6 21 14 -10 17 -10 53 0
199 7 98 13 189 13 203 0 58 23 159 50 220 l29 65 -27 -35 c-53 -69 -200 -206
-274 -254 -141 -93 -355 -175 -499 -192 l-60 -7 -193 155 c-260 208 -543 429
-576 450 -24 16 -57 18 -302 17 -151 0 -282 -3 -290 -6z m524 -170 c9 -59 7
-131 -5 -135 -5 -2 -62 0 -125 5 -62 4 -167 3 -231 -1 -65 -5 -121 -7 -125 -5
-10 5 -11 157 -1 166 3 4 113 7 243 7 l237 0 7 -37z m-1624 -820 c47 -49 106
-120 131 -158 62 -95 112 -196 102 -206 -4 -4 -26 -11 -48 -14 l-41 -7 -39 87
c-47 107 -137 243 -206 313 -41 42 -49 56 -38 63 32 20 56 7 139 -78z m2900
77 c12 -7 10 -12 -12 -30 -67 -52 -179 -218 -238 -353 l-35 -79 -39 5 c-63 9
-64 17 -16 109 56 108 130 207 218 291 68 65 92 76 122 57z m-1694 -272 c16
-43 32 -78 37 -78 5 0 6 57 3 128 -6 138 -6 139 33 -43 5 -27 17 -81 26 -120
19 -88 45 -209 54 -254 7 -41 28 -52 35 -19 6 30 35 162 46 213 5 22 16 72 24
110 8 39 22 102 30 140 9 39 18 79 20 90 3 11 3 -41 0 -115 -4 -86 -2 -131 4
-125 5 6 28 62 52 125 61 168 62 171 68 166 2 -3 0 -25 -6 -48 -6 -24 -18 -83
-27 -133 -9 -49 -20 -108 -25 -130 -28 -131 -42 -216 -37 -222 10 -9 8 -13 97
162 45 88 79 149 77 135 -3 -14 -32 -115 -65 -225 -33 -110 -63 -213 -66 -229
-12 -51 16 -8 58 89 22 50 52 118 68 153 15 35 28 68 28 73 0 5 4 9 9 9 5 0
-4 -35 -19 -77 -61 -170 -151 -399 -165 -420 -15 -22 -19 -23 -189 -23 l-173
0 -27 63 c-32 72 -33 76 -74 182 -16 44 -46 122 -66 174 -20 52 -34 96 -31 99
4 5 24 -36 85 -178 63 -147 64 -150 72 -150 12 0 10 21 -6 71 -8 24 -22 71
-31 104 -19 64 -47 159 -71 239 -8 26 -13 50 -11 52 2 2 39 -66 82 -151 75
-150 105 -191 91 -122 -4 17 -14 68 -23 112 -8 44 -19 100 -24 125 -61 315
-60 317 37 48z m-699 177 c87 -37 162 -128 202 -247 25 -74 28 -189 6 -239
-16 -39 -17 -38 -15 57 2 126 -42 242 -126 327 -54 55 -99 77 -158 77 -50 0
-59 11 -23 28 32 15 72 14 114 -3z m1858 3 c37 -17 31 -26 -19 -26 -112 0
-223 -112 -272 -271 -8 -25 -14 -86 -14 -136 -1 -83 -2 -88 -15 -65 -20 35
-19 168 1 238 32 110 104 205 186 246 57 28 93 32 133 14z m-1887 -135 c36
-47 76 -123 67 -131 -9 -9 -176 -51 -205 -51 -21 -1 -31 11 -65 76 -22 42 -40
81 -40 86 0 9 159 54 197 56 9 1 30 -16 46 -36z m1927 17 c44 -11 88 -20 97
-20 9 0 19 -4 22 -9 9 -14 -77 -171 -94 -171 -8 0 -47 7 -85 15 -39 9 -85 18
-102 22 -18 3 -33 11 -33 18 0 30 89 165 108 165 4 0 43 -9 87 -20z m-1408
-192 c-3 -8 -6 -5 -6 6 -1 11 2 17 5 13 3 -3 4 -12 1 -19z m770 0 c-3 -8 -6
-5 -6 6 -1 11 2 17 5 13 3 -3 4 -12 1 -19z m-1493 -135 c3 -16 15 -59 26 -98
11 -38 20 -82 20 -97 0 -27 -2 -28 -50 -28 -49 0 -49 0 -55 38 -3 20 -13 65
-21 99 -19 84 -18 90 14 101 46 17 59 14 66 -15z m2275 16 c35 -12 37 -20 17
-92 -8 -29 -17 -73 -21 -99 l-6 -48 -53 0 -53 0 7 43 c13 82 52 207 65 207 6
0 26 -5 44 -11z m-2426 -116 c9 -49 18 -133 19 -187 l3 -100 -190 -38 c-202
-41 -225 -52 -225 -105 0 -41 -42 -167 -50 -152 -4 8 -10 67 -14 132 -3 64
-10 136 -16 160 -5 23 -18 83 -29 132 -11 50 -23 99 -26 111 -6 19 1 22 72 38
43 10 105 24 138 32 33 8 80 19 105 24 25 6 72 17 105 24 96 23 90 26 108 -71z
m2667 61 c36 -8 83 -19 105 -24 22 -5 89 -21 149 -35 60 -14 112 -28 116 -30
4 -2 -4 -50 -17 -107 -38 -163 -41 -185 -54 -325 -7 -73 -15 -130 -19 -128 -4
2 -17 48 -30 102 -13 54 -28 104 -35 111 -6 7 -38 17 -71 23 -32 5 -117 22
-189 38 l-130 27 3 105 c1 57 9 139 17 183 8 43 15 80 15 83 0 6 48 -2 140
-23z"/>
</g>
</svg>
