<?xml version="1.0" encoding="utf-8"?>
<svg width="24" height="24" viewBox="0 0 24 24" version="1.1" id="Layer_1"  fill="#F25C05" xmlns="http://www.w3.org/2000/svg" xmlns:xlink="http://www.w3.org/1999/xlink" x="0px" y="0px "
	 viewBox="0 0 2144 1645.108" enable-background="new 0 0 2144 1645.108" xml:space="preserve">
<path d="M2111.526,984.826c-6.207-7.702,8.23-8.829,0.322-21.071c-3.343-5.173-0.321-11.546-0.596-14.935
	c-1.063-13.089-9.018-12.071-5.876-17.135c5.84-9.416-6.73-16.678-5.544-21.71c1.884-7.999-1.819-13.33-7.606-17.925
	c-1.085-0.862-1.99-1.941-1.55-3.415c4.362-14.597-12.41-16.205-10.972-22.248c3.086-12.974-12.309-14.396-12.22-18.957
	c0.257-13.132-13.51-13.262-14.868-19.821c-1.334-6.443-5.828-9.911-11.713-11.693c-1.882-0.57-3.842-0.823-4.426-2.833
	c-3.89-13.393-18.006-11.374-19.364-15.984c-3.301-11.213-16.203-6.371-19.686-12.567c-5.953-10.588-16.269-5.937-21.081-10.841
	c-9.036-9.21-16.253-3.184-22.461-8.61c-9.174-8.019-15.248-0.508-24.03-5.693c-13.156-7.766-12.044,2.574-23.729-3.409
	c-6.656-3.408-14.256,0.709-17.733,1.222c-5.013,0.739-9.064-4.811-16.926-1.201c-11.057,5.076-18.754-1.578-24.81,3.953
	c-6.824,6.231-16.27-0.864-24.004,6.381c-6.16,5.77-15.81,0.296-20.239,7.252c-5.177,8.13-19.049,2.607-24.249,14.226
	c-1.806,4.036-13.975,0.653-17.819,11.182c-2.625,7.19-13.701,2.798-19.108,14.39c-3.638,7.801-7.091,4.322-11.914,9.815
	c-4.892,5.572-7.506,4.216-39.202-14.614c-103.207-61.312-99.019-56.196-86.508-65.543c80.374-60.048,90.57-108.537,191.039-93.855
	c5.255,0.768,92.386-13.191,47.313-21.422c-149.508-27.304-132.018-9.648-245.364,44.647c-6.17,2.955-8.302,4.686-45.901,41.701
	c-5.336,5.253-7.454,0.352-14.575-4.244c-4.051-2.614,1.036-9.501-7.799-13.562c-50.126-23.046-20.628-16.58-71.235-49.835
	c-8.263-5.43-15.438-12.847-25.908-14.802c-3.368-0.629-6.597-2.885-8.547-6.667c-2.083-4.038-12.584-14.693-17.742-10.791
	c-10.694,8.09-15.488-1.768-21.623-6.826c-13.847-11.417,4.289-18.618-5.025-24.699c-7.676-5.011-23.34,17.701-25.093,23.997
	c-2.455,8.819-8.903,9.577-12.56,10.546c-2.407,0.638-3.623-2.556-5.112-4.434c-12.552-15.827-41.645-17.642-33.594-34.578
	c1.735-3.65-1.503-9.859-9.972-3.449c-18.486,13.989-13.758,31.56-24.116,34.19c-27.958,7.099-17.963,14.472-29.4,14.102
	c-18.091-0.586-23.211,7.411-35.134,3.349c-1.119-0.382-2.752-0.039-3.87,0.522c-7.25,3.64-15.347-5.56-89.974-41.857
	c8.644-19.075,15.476-13.895,12.727-24.233c-2.289-8.61,1.546-22.128-12.94-19.378c-32.671,6.2-15.167,18.616-35.517-2.815
	c-51.299-54.02-64.638-26.366-88.108-28.023c-7.295-0.515-9.403,2.584-27.479,9.877c-20.792,8.388-4.17,18.958-22.815,17.414
	c-38.443-3.184-39.751,3.107-48.07,5.274c-43.291,11.279-50.555,10.245-78.46,24.465c-11.152,5.683-20.041-0.096-28.767,2.337
	c-30.973,8.637-37.741-18.043-55.988-0.583c-5.956,5.699-9.646-1.943-15.903-2.587c-6.603-0.68-2.827-8.255-11.452-8.198
	c-2.166,0.015-2.96-2.249-3.438-3.986c-2.836-10.314-8.872-19.345-11.68-29.685c-3.879-14.286-6.571-24.82-13.624-23.91
	c-5.963,0.77-27.121-24.292-37.028-30.301c-9.639-5.847-2.25-16.065-20.641-16.293c-15.795-0.196-3.341-13.994-15.867-27.098
	c-11.115-11.628-0.938-18.852-15.203-29.722c-12.945-9.863-18.801-7.642-19.853-18.785c-1.396-14.78-1.516-23.626-9.377-29.419
	c-1.434-1.057-6.885-12.038,0.102-9.412c8.194,3.079,10.468-3.184,17.382-14.951c5.907-10.053,13.021-1.701,23.634-11.102
	c10.393-9.207,29.884-9.305,38.087-23.856c2.461-4.365,14.088-16.311,18.45-24.143c18.669-33.52,49.577-61.673,65.08-84.681
	c7.343-10.897,18.215-0.011,30.789-27.484c6.592-14.404,23.187-13.92,8.652-34.848c-2.545-3.664-21.355-25.529-25.909-25.42
	c-5.499,0.131-8.36-2.423-20.555-18.699c-37.69-50.304-118.211-62.907-115.06-43.497c2.421,14.91-3.267,24.199,9.028,34.771
	c34.021,29.255,40.533,63.912,37.874,68.724c-8.18,14.805-13.725,30.352-25.572,33.314c-21.45,5.365-21.954,16.269-34.002,18.011
	c-18.583,2.687-36.845,20.594-48.909,34.875c-10.922,12.929-5.466,18.805-10.706,25.174c-5.875,7.142-6.307-8.665-23.432,5.611
	c-34.483,28.747-40.318,27.213-50.675,47.639c-13.015,25.668-12.029,47.6-6.734,60.193c11.452,27.235,4.666,30.202,17.897,45.447
	c17.708,20.402,8.847,18.57,17.683,48.447c13.661,46.194,21.344,47.121,13.113,51.029c-19.456,9.237-42.75,3.377-54.933,13.836
	c-3.252,2.792-30.194,6.2-42.378,5.132c-21.19-1.858-25.227,6.237-31.131,7.709c-14.836,3.699-5.92-9.413-47.83-36.043
	c-7.433-4.723-17.884-22.007-29.226-40.255c-4.136-6.654-95.925-73.07-103.309-77.486c-18.333-10.965-12.804-25.968-24.72-32.229
	c-24.161-12.694-28.705-34.987-67.943,15.365c-10.939,14.037-4.388,15.004-10.513,22.813c-8.699,11.092-31.222,33.909-38.292,54.619
	c-9.559,27.999-12.158,74.314,16.335,66.072c7.423-2.147,21.895-0.413,31.43-13.882c14.256-20.138,15.37-31.559,43.859-40.083
	c6.627-1.983,28.24,10.956,28.077,17.989c-0.526,22.772,19.651,27.242,20.633,34.896c1.868,14.559,17.25,33.973,26.915,44.865
	c14.487,16.325,33.835,5.095,65.648,54.305c3.267,5.054,9.217,8.076,10.76,14.569c0.408,1.715,37.221,22.346,38.221,22.49
	c65.227,9.375,43.288-1.288,70.28-2.414c15.449-0.645,13.167-12.339,22.85-6.406c4.768,2.922,12.365,0.094,16.535,1.913
	c19.625,8.563,35.799-1.636,65.561-0.26c21.474,0.993,12.294-8.732,23.361-4.672c20.669,7.583,21.33-7.173,31.004,0.441
	c10.058,7.917,20.362,15.477,33.318,18.233c1.63,0.347,4.252,0.961,4.452,2.963c0.63,6.322,6.515,8.102,9.762,12.125
	c2.697,3.341,5.653,4.612,9.63,2.325c7.559-4.346,3.333,5.561,45.988,31.931c56.476,34.914,40.953,20.844,54.322,28.167
	c23.958,13.122,49.726,9.026,55.242,21.461c0.15,0.338,0.933,0.502,1.442,0.558c24.935,2.749,64.528,79.407,69.909,88.522
	c8.738,14.804,2.448,11.533,7.328,20.746c18.462,34.854,19.188,43.339,31.904,53.655c13.172,10.688,2.03,11.093,25.656,30.031
	c2.878,2.307,19.41,17.912,36.28,29.643c5.32,3.7,11.254,6.732,16.116,12.04c-8.253,3.628-77.194,14.83-218.23,97.716
	c-121.598,71.46-55.617,66.273-32.342,57.074c57.761-22.828,126.634-48.332,188.918-47.004
	c-7.751,37.504-53.922,26.328-1.704,69.704c73.402,60.973,59.735,31.849,79.446,43.595c-15.527,12.521-17.337,0.557-31.041,12.186
	c-9.351,7.936-24.517,4.285-33.611,18.044c-2.917,4.413-20.358,7.255-28.32,21.142c-7.872,13.73-20.286,9.206-21.825,22.865
	c-1.794,15.919-19.089,11.53-20.233,28.617c-0.958,14.31-16.05,13.302-14.837,27.683c1.371,16.245-14.789,18.229-9.781,38.779
	c2.581,10.59-9.234,10.032-3.828,32.373c3.991,16.494-9.208,22.645,3.152,35.254c4.037,4.118,0.958,6.816,0.719,16.103
	c-0.544,21.172,10.444,13.001,9.823,28.177c-0.7,17.108,11.751,18.085,16.521,35.392c5.054,18.335,16.019,9.345,19.14,24.951
	c3.468,17.343,19.304,7.429,24.837,25.272c1.548,4.999,13.728,11.034,18.591,13.024c7.491,3.064,10.651,12.196,22.874,15.551
	c18.034,4.95,20.928,13.29,30.36,12.948c20.159-0.732,24.569,11.123,36.937,7.623c6.364-1.801,19.689,3.2,21.413,3.881
	c9.607,3.798,11.43-1.316,23.231-0.724c11.377,0.571,23.034,2.182,33.856-3.303c2.537-1.286,5.198-1.272,7.838-1.084
	c17.066,1.218,19.987-10.055,32.095-9.994c13.847,0.07,15.322-8.626,30.349-12.963c19.894-5.741,13.961-10.452,26.783-16.563
	c21.51-10.254,17.714-18.508,29.182-25.513c15.979-9.76,6.357-15.151,26.905-32.465c6.003-5.058,4.682-13.918,9.04-19.481
	c14.005-17.873,8.106-22.356,14.412-33.916c11.2-20.533,2.979-20.998,6.543-32.049c7.861-24.377-0.724-17.466,2.716-41.808
	c2.037-14.417-4.549-12.698-5.162-25.817c-0.379-8.103,0.739-16.948-5.245-23.593c-4.877-5.417-3.442-12.003-4.792-18.059
	c-0.686-3.077,1.462-3.761,21.222-27.475c5.584-6.702,40.088-1.291,32.294-24.71c-2.973-8.934-2.644-9.893,5.515-15.719
	c1.43,1.129,1.09,2.838,1.406,4.338c2.496,11.88,19.753,10.753,25.532,5.112c2.832-2.764,6.004-5.506,9.801-4.071
	c7.2,2.722,14.945-0.213,22.018,2.852c1.747,0.757,4.799,0.14,4.527-1.815c-0.718-5.17,3.163-5.346,6.057-6.733
	c7.331-3.516,13.724-10.223,26.204-18.151c79.809-50.7,118.164-57.75,127.318-100.376c3.035-14.13,19.742,16.758,49.057-7.662
	c33.571-27.967,42.176-88.895-5.97-143.635c-11.157-12.685,10.332-13.82,4.44-41.291c-9.741-45.415-7.785-104.963-1.206-116.889
	c5.354,1.437,65.23,41.047,72.107,45.682c9.789,6.597,6.839,18.353,26.713,18.187c6.158-0.052,21.568,6.63,17.405,13.494
	c-5.518,9.098,2.509,5.635-2.909,14.562c-3.511,5.784-7.943,11.709-3.409,19.051c1.088,1.761,0.024,2.957-1.09,4.161
	c-10.556,11.405,0.661,19.001-3.321,23.637c-7.634,8.887,0.808,16.914-1.977,25.984c-4.667,15.204,2.935,6.966,2.103,26.047
	c-0.831,19.076,9.305,9.91,5.453,20.043c-5.481,14.42,10.435,14.561,7.598,21.079c-6.052,13.911,8.391,15.012,8.211,25.359
	c-0.238,13.733,7.421,8.101,11.283,21.694c4.666,16.419,12.848,7.951,13.071,14.902c0.28,8.733,5.325,13.504,13.313,15.741
	c1.24,0.347,2.39,0.265,2.393,2.327c0.02,14.506,14.124,11.508,16.257,17.363c5.065,13.905,14.671,8.153,18.219,14.64
	c7.075,12.933,16.416,6.6,19.347,11.685c3.69,6.402,9.658,8.834,16.826,8.832c1.569,0,3.844-0.544,4.448,0.998
	c4.546,11.603,16.148,3.877,23.558,10.386c10.785,9.472,17.137-1.074,23.089,5.446c6.131,6.717,18.903-0.454,21.176,1.955
	c3.489,3.699,16.69,1.778,20.781,0.596c3.998-1.155,13.592,5.022,21.626-1.311c5.771-4.549,8.319,6.238,22.864-3.733
	c5.799-3.975,11.413,3.69,22.522-6.314c4.669-4.205,11.385,2.313,21.546-8.321c5.205-5.446,15.512,0.209,21.26-11.474
	c2.871-5.837,11.543,1.357,18.963-12.298c4.047-7.445,10.83-0.043,17.544-14.447c4.298-9.219,12.427-1.766,16.873-18.082
	c2.267-8.321,9.723-1.044,14.244-17.432c3.148-11.411,10.945-5.193,12.087-19.264c1.015-12.51,15.495-9.782,10.489-24.338
	c-2.492-7.245,12.534-4.703,8.52-19.527c-3.437-12.689,7.329-4.154,6.655-18.59c-0.36-7.706-2.971-10.309,0.365-12.826
	c4.692-3.54,5.178-8.337,3.248-13.557C2106.55,997.684,2121.003,996.584,2111.526,984.826z M1366.946,622.667
	c6.046-8.989,7.346-9.01,14.824,0.089c-4.694,3.237-10.079,1.138-15.308,2.875C1366.766,623.665,1366.687,623.052,1366.946,622.667z
	 M1380.357,716.82c-2.99,2.075-4.607-1.167-6.837-2.074c-10.188-4.144,3.333-11.189,8.176-1.383
	C1382.332,714.65,1381.367,716.12,1380.357,716.82z M1320.417,617.298c11.293-0.554,4.621,14.649,1.363,6.541
	C1321.025,621.961,1319.393,620.253,1320.417,617.298z M1293.6,603.638c2.758-6.079,13.375,3.948,14.729,6.13
	c-6.203,2.031-12.141,2.751-16.956,6.479c-1,0.774-6.262,1.652-6.812-1.469C1283.719,609.996,1288.917,613.959,1293.6,603.638z
	 M1280.423,624.747c2.811,0.352,2.679,3.851-3.397,4.121C1277.371,626.451,1277.54,624.386,1280.423,624.747z M968.079,1277.812
	l22.761,44.723c-4.434,2.422-8.092,5.128-13.114,6.036l-30.431-40.344C953.973,1284.332,960.938,1280.837,968.079,1277.812z
	 M995.213,1320.503c-0.85,0.308-1.679,0.666-2.493,1.058l-22.682-44.566c4.591-1.881,9.249-3.566,13.944-5.034L995.213,1320.503z
	 M986.012,1271.343c7.5-2.241,15.082-3.925,22.627-4.975l2.024,38.963c-12.979,6.154-2.026,11.757-13.419,14.563L986.012,1271.343z
	 M945.458,1289.305l30.004,39.779c-8.48,2.271-14.672,8.228-19.583,14.647l-34.549-37.083
	C928.695,1300.314,936.82,1294.477,945.458,1289.305z M919.737,1308.041l34.859,37.416c-2.937,4.053-5.472,8.233-7.582,12.771
	l-43.832-32.998C908.039,1319.22,913.606,1313.457,919.737,1308.041z M901.863,1326.885l44.267,33.326
	c-0.359,0.843-0.701,1.694-1.023,2.555l-52.377-22.261C895.344,1335.864,898.408,1331.311,901.863,1326.885z M891.706,1342.369
	l52.692,22.395c-1.644,4.906-2.23,8.6-2.904,13.776l-59.893-13.798C884.439,1356.976,887.841,1349.477,891.706,1342.369z
	 M880.894,1366.751l60.342,13.902c-0.917,8.016-1.087,16.021,0.161,24.028l-67.87-8.365
	C875.031,1386.254,877.537,1376.318,880.894,1366.751z M873.214,1398.409l68.559,8.45c2.176,11.535-1.1,8.984-3.375,13.104
	l-66.377,3.509C871.668,1415.141,872.087,1406.74,873.214,1398.409z M872.127,1425.586l65.466-3.461
	c-0.152,0.683-0.234,1.387-0.257,2.104l-62.877,19.192C873.248,1437.554,872.478,1431.593,872.127,1425.586z M874.897,1445.499
	l62.517-19.082c0.344,3.726,1.121,9.234,2.166,14.37l-56.293,28.716C879.529,1461.807,876.759,1453.758,874.897,1445.499z
	 M884.235,1471.396l55.788-28.458c5.081,22.919,7.307,17.665,10.871,21.848l-49.08,31.841
	C894.778,1488.85,888.876,1480.428,884.235,1471.396z M903.275,1498.201l48.601-31.53c1.157,4.292-3.092,2.404,7.424,13.285
	l-37.328,34.841C915.243,1509.818,908.968,1504.283,903.275,1498.201z M937.5,1524.887c-4.753-2.707-9.359-5.648-13.784-8.823
	l37.039-34.571c0.969,1.047,1.928,2.11,2.91,3.142L937.5,1524.887z M939.347,1525.929l25.844-39.757
	c3.137,3.039,9.513,7.052,12.852,9.03l-17.258,40.709C953.427,1533.071,946.244,1529.74,939.347,1525.929z M962.77,1536.651
	l17.119-40.381c8.285,4.701,15.68,7.544,23.253,9.432l-11.953,39.031C981.614,1542.813,972.066,1540.114,962.77,1536.651z
	 M993.28,1545.133l11.921-38.927c5.217,1.242,10.391,2.195,15.707,2.389l-4.781,39.083
	C1009.376,1547.565,1003.176,1547.001,993.28,1545.133z M1010.743,1266.088c10.007-1.236,19.922-1.336,29.465-0.119l-1.328,25.561
	c-9.848,5.93-17.24,9.363-26.145,12.905L1010.743,1266.088z M1018.257,1547.699l4.778-39.063c1.347-0.005,2.089-0.013,4.851-0.202
	l4.73,38.671C1027.833,1547.466,1023.052,1547.704,1018.257,1547.699z M1034.728,1546.94l-4.729-38.664
	c5.355-0.446,10.59-1.195,15.674-2.304l11.741,38.339C1052.792,1545.194,1048.195,1545.834,1034.728,1546.94z M1145.778,1225.659
	c-9.56-6.512-21.297-8.366-30.953-14.725c-4.685-3.085-9.86-5.109-15.805-4.972c-12.15,0.279-23.314-11.794-37.218-7.074
	c19.596-15.569,36.483-32.995,53.932-49.789c5.895-5.674,20.761-7.75,21.504-3.173c0.163,1.003,15.094,66.07,17.932,72.698
	C1156.973,1222.832,1149.55,1228.228,1145.778,1225.659z M1172.017,1352.194c1.73,0.244,2.052,0.969,4.742,10.84l-26.125,6.019
	c-4.49-5.124-4.255-6.335,1.015-10.726C1163.656,1348.323,1156.203,1349.965,1172.017,1352.194z M1066.988,1273.55
	c-0.171,0.197-0.347,0.379-0.523,0.56l0.166-0.719C1066.75,1273.446,1066.87,1273.495,1066.988,1273.55z M1064.663,1272.513
	l-0.855,3.694c-2.731,1.674-5.697,2.41-8.101,4.146c-4.776,3.449-9.646,6.75-14.638,9.842l1.243-23.934
	C1050.08,1267.418,1057.583,1269.465,1064.663,1272.513z M1059.496,1543.882l-11.754-38.383c8.243-1.974,16.07-4.938,23.355-9.133
	l16.299,38.447C1078.387,1538.651,1069.139,1541.855,1059.496,1543.882z M1089.34,1533.976l-16.407-38.702
	c4.396-2.693,8.583-5.856,12.533-9.546l24.494,37.68C1104.529,1526.781,1099.005,1529.748,1089.34,1533.976z M1111.75,1522.279
	l-24.73-38.042c1.286-1.268,1.573-1.592,2.916-2.98l34.282,31.998C1120.218,1516.488,1116.063,1519.507,1111.75,1522.279z
	 M1125.872,1511.903l-34.439-32.144c3.821-3.695,8.022-6.902,12.19-10.133l39.506,25.63
	C1137.84,1501.124,1132.077,1506.741,1125.872,1511.903z M1144.556,1493.658l-39.167-25.41c6.282-4.922,11.146-9.69,11.146-9.69
	c4.881-1.134,8.649-3.617,11.945-6.664l33.619,17.149C1157.234,1477.752,1151.339,1485.933,1144.556,1493.658z M1163.114,1467.185
	l-33.028-16.848c4.928-5.022,5.55-7.008,13.492-14.749l28.967,8.841C1170.157,1452.402,1166.988,1459.974,1163.114,1467.185z
	 M1173.133,1442.397l-27.852-8.501c2.955-3.052,5.707-6.321,8.417-9.637l22.901,1.211
	C1175.823,1431.306,1174.661,1436.945,1173.133,1442.397z M1176.868,1423.364l-21.512-1.137c17.276-21.27,4.92-7.212,8.994-22.168
	l16.118-1.986C1179.734,1406.921,1179.057,1404.898,1176.868,1423.364z M1180.612,1395.922l-15.414,1.9
	c5.274-10.716-15.161-7.692-10.677-19.498c1.135-2.99-0.418-5.295-2.292-7.466l25.065-5.775
	C1179.888,1375.234,1181.209,1385.508,1180.612,1395.922z M1188.818,1193.781c-2.475,1.916-5.08,0.549-7.653,0.034
	c-5.247-1.051-11.94,13.373-13.181-38.481c6.39,0.055,34.845,12.373,40.551,14.75
	C1217.039,1173.628,1211.796,1175.998,1188.818,1193.781z M1194.113,1140.728c3.874-1.967,4.694-5.408,5.101-9.099
	c11.736,1.772,8.516,5.323,12.566,18.967C1209.488,1150.25,1185.93,1144.884,1194.113,1140.728z M1231.493,1297.885
	c1.469-0.904,3.021-0.636,3.774,1.59C1224.448,1319.402,1217.313,1306.612,1231.493,1297.885z M1321.59,746.54
	c3.993,11.745-16.089,16.717-5.022,33.722c2.878,4.422-1.972,15.311-7.916,15.025c-8.717-0.42-104.78,106.249-105.6,107.25
	c-20.579,25.101-65.884,42.314-96.859,51.339c-87.448,25.479-72.381,19.657-116.224-14.171c-4.813-3.714-38.812-36.302-45.62-39.732
	c-4.672-2.354-2.597-5.283-5.387-9.284c-11.126-15.954-6.818-39.802-11.606-48.743c-6.059-11.317,2.593-22.483-9.008-38.158
	c-3.11-4.202-0.785-9.301-1.19-13.945c-0.657-7.537-1.547-15.451,2.9-22.52c0,0-1.901-16.326,8.705-29.645
	c12.908-16.211,3.358-30.935,15.962-28.802c8.091,1.369,22.452,48.722,41.361,46.589c7.617-0.86,7.225,7.579,16.168,3.25
	c12.676-6.138,17.099-14.008,28.169-18.119c8.267-3.07,0.27-10.448,7.483-24.776c3.913-7.773-4.759-12.981,9.458-24.992
	c5.919-5,10.311,0.727,18.99,9.955c10.069,10.706,24.11,13.568,38.963,13.242c37.532-0.824,2.736-67.344,19.386-64.542
	c31.97,5.381,27.118,17.211,35.983,5.794c5.789-7.455,10.427-3.704,24.085-0.034c11.032,2.964,5.381,9.983,21.788,8.552
	c10.116-0.882,19.711,17.93,41.505,11.744c9.257-2.627,29.58,18.562,32.75-7.841c1.97-16.408,19.06-8.912,31.32-8.504
	c3.615,0.121,2.173,4.957,0.206,10.432c-3.107,8.646,4.045,11.168,19.046,22.914c1.841,1.442,3.869,2.437,5.881,1.333
	c2.794-1.534,5.143-0.019,7.698,0.29c8.522,1.03-3.314,6.459,8.755,15.597c6.354,4.811-0.996,8.278-8.906,9.689
	C1324.993,722.986,1318.978,738.854,1321.59,746.54z M1361.986,743.509c-6.719-6.495-16.236-8.771-24.642-2.757
	c-8.552,6.119-7.341-14.242,20.585-12.806c8.468,0.245,15.13-0.068,17.339,4.75c2.262,4.933,2.471,4.818-2.251,7.923
	C1368.596,743.528,1365.701,747.1,1361.986,743.509z M1371.187,1214.112c-1.539-3.995,1.117-6.476,3.764-5.965
	c14.955,2.89,35.966-21.621,41.175-16.774C1416.327,1197.312,1372.623,1217.836,1371.187,1214.112z M1482.02,1121.171
	c1.865-3.698,1.178-8.343,4.574-12.257C1494.335,1124.015,1479.118,1126.924,1482.02,1121.171z M1499.823,940.8
	c-1.793-12.113-2.74-14.725,0.616-15.418c5.857-1.21,10.751-2.516,11.154,0.126c1.23,8.075,6.1,15.276,6.104,24.993
	C1501.373,943.669,1500.284,943.916,1499.823,940.8z M1698.967,840.382c-2.106,3.34-2.685,7.624-13.484-2.914
	c-10.737-10.477-8.527-0.147-16.921-5.443c-102.85-64.889-90.166-60.05-84.688-68.158c8.277-12.247-2.483-5.553,120.328,63.091
	c4.692,2.623,9.02,5.686,13.7,9.374C1708.064,847.074,1706.968,827.696,1698.967,840.382z M2056.259,972.856l-80.234,9.889
	c0.043-7.881-0.918-15.634-3.062-23.229l76.925-17.722C2052.896,952.036,2055.04,962.477,2056.259,972.856z M2049.278,939.763
	l-76.937,17.725c-1.274-4.092-2.891-8.138-4.89-12.132l72.21-30.691C2043.439,922.776,2046.659,931.192,2049.278,939.763z
	 M2038.754,912.751l-72.282,30.721c-0.156-0.293-0.319-0.585-0.479-0.877l63.073-47.484
	C2032.602,900.764,2035.835,906.667,2038.754,912.751z M2027.931,893.317l-62.97,47.406c-2.268-3.902-4.807-7.515-7.594-10.845
	l54.076-58.044C2017.47,878.397,2022.982,885.614,2027.931,893.317z M2009.999,870.281l-54.019,57.982
	c-5.269-5.941-11.388-10.899-18.285-14.831l47.919-63.529C1992.488,854.637,2000.253,859.977,2009.999,870.281z M1983.865,848.705
	l-48.041,63.692c-3.851-2.051-7.997-3.818-12.068-5.284l36.815-72.336C1968.779,838.834,1976.426,843.638,1983.865,848.705z
	 M1958.667,833.853l-36.928,72.558c-0.259-0.087-0.518-0.17-0.777-0.255l18.442-79.715
	C1945.977,828.486,1952.473,830.913,1958.667,833.853z M1937.373,825.83l-18.437,79.692c-4.195-1.263-8.419-2.208-12.661-2.796
	l4.291-82.612C1919.593,821.333,1928.529,823.2,1937.373,825.83z M1908.462,819.833l-4.292,82.629
	c-7.748-0.856-15.547-0.501-23.327,1.294l-4.426-85.192C1886.905,817.918,1898.688,818.621,1908.462,819.833z M1874.305,818.707
	l4.445,85.568c-5.372,1.42-9.04,3.035-12.019,4.372l-19.656-84.96C1856.089,821.054,1865.175,819.413,1874.305,818.707z
	 M1845.045,824.295l19.694,85.128l-39.282-77.182C1833.622,828.278,1838.77,826.235,1845.045,824.295z M1823.556,833.17
	l39.303,77.224c-3.723,1.703-7.437,3.528-10.874,5.799l-52.75-69.935C1804.961,841.938,1805.407,842.11,1823.556,833.17z
	 M1797.558,847.55l52.689,69.854c-7.057,5.155-8.411,11.245-15.242,6.853c-30.694-19.738-16.778-7.52-61.129-55.125
	C1776.234,863.849,1792.998,851.147,1797.558,847.55z M1803.903,904.466c-22.774-14.466-26.465-14.132-30.37-32.598
	L1803.903,904.466z M1743.462,941.558l-11.128-2.564C1733.888,934.494,1737.768,938.099,1743.462,941.558z M1731.9,941.067
	l17.486,4.029c36.756,21.66,39.199,25.729,40.603,35.317l-61.701-7.605c0.21-1.793,0.168-3.656-0.064-5.418
	C1727.019,958.258,1730.634,949.83,1731.9,941.067z M1727.928,974.895l62.37,7.687c0.762,5.348,1.461,10.706,2.136,16.066
	l-66.093,3.494C1725.613,992.792,1726.023,983.601,1727.928,974.895z M1726.526,1004.252l66.172-3.498
	c1.001,7.988,0.317,2.578,0.618,4.838l-63.183,19.285C1728.429,1018.015,1727.181,1011.099,1726.526,1004.252z M1739.559,1052.976
	c-3.512-8.382-6.578-17.156-8.905-26.045l62.992-19.227c0.923,5.306,2.597,10.388,4.538,15.367L1739.559,1052.976z
	 M1740.391,1054.927l58.577-29.88c6.455,15.993,9.591,13.396,16.747,19.152l-60.61,39.321
	C1749.584,1074.405,1744.594,1064.696,1740.391,1054.927z M1756.21,1085.326l61.165-39.681c5.178,4.841,4.032,6.472,9.955,11.35
	l-54.817,51.165C1766.589,1100.956,1761.143,1093.296,1756.21,1085.326z M1773.869,1109.789l55.141-51.467
	c0.991,0.751,2.007,1.48,3.023,2.21l-42.651,65.611C1783.908,1121.051,1778.732,1115.575,1773.869,1109.789z M1790.962,1127.595
	l42.786-65.819c3.885,2.858,11.683,10.51,11.683,10.51l-30.95,73.007C1806.148,1140.21,1798.296,1134.248,1790.962,1127.595z
	 M1816.315,1146.39l31.06-73.266c2.031,0.532,25.029-6.201,28.408-7.842l-28.885,94.322
	C1836.12,1156.542,1825.907,1152.045,1816.315,1146.39z M1848.939,1160.167l29.36-95.875c5.212-1.58,7.727-0.003,12.246,0.744
	l-12.131,99.173C1868.193,1164.07,1858.354,1162.667,1848.939,1160.167z M1880.545,1164.22l11.928-97.512l11.875,97.081
	C1892.975,1165.149,1890.183,1164.183,1880.545,1164.22z M1906.446,1163.511l-11.99-98.019c4.15,0.292,8.276-0.007,12.354-0.666
	l28.227,92.173C1926.45,1159.59,1915.557,1162.257,1906.446,1163.511z M1937.06,1156.38l-28.149-91.922
	c7.594-1.448,15.067-3.777,21.96-7.139l36.679,86.522C1957.757,1148.984,1947.55,1153.1,1937.06,1156.38z M1969.428,1142.85
	l-36.666-86.491c3.677-1.92,7.201-4.142,10.576-6.672l50.266,77.325C1985.903,1133.026,1977.703,1138.366,1969.428,1142.85z
	 M1995.271,1125.693l-50.251-77.303c0.05-0.039,0.099-0.079,0.148-0.118l66.623,62.184
	C2006.656,1115.903,2001.148,1120.981,1995.271,1125.693z M2013.249,1108.922l-66.427-62.001c3.102-2.607,5.996-5.39,9.078-8.847
	l74.57,48.377C2025.324,1094.532,2019.583,1102.021,2013.249,1108.922z M2031.59,1084.655l-74.292-48.197
	c5.165-6.085,9.294-12.642,12.305-19.764l76.077,38.808C2041.78,1066.448,2037.486,1075.132,2031.59,1084.655z M2046.379,1053.482
	l-75.98-38.758c1.526-3.93,2.727-8.026,3.575-12.309l79.6,24.296C2051.663,1035.796,2049.368,1044.747,2046.379,1053.482z
	 M2053.999,1024.629l-79.644-24.31c0.03-0.169,0.06-0.338,0.089-0.507l82.567,4.365
	C2056.363,1012.774,2055.243,1018.523,2053.999,1024.629z M2057.156,1002.066l-82.357-4.354c0.665-4.31,1.059-8.586,1.179-12.829
	l80.516-9.924C2057.459,984.118,2057.696,993.213,2057.156,1002.066z"/>
</svg>
